<svg width="182" height="181" viewBox="0 0 182 181" fill="none" xmlns="http://www.w3.org/2000/svg">
<g id="empty states" clip-path="url(#clip0_1310_28061)">
<g id="10">
<g id="Group 772">
<path id="Vector" d="M164.8 103.04C164.8 122.243 156.957 139.552 144.38 151.994C132.074 164.3 115.035 171.738 96.2374 171.738C77.5754 171.738 60.5362 164.165 48.0948 151.994C35.5183 139.552 27.6748 122.243 27.6748 103.04C27.6748 65.0395 58.3725 34.3418 96.2374 34.3418C134.102 34.3418 164.8 65.1747 164.8 103.04Z" fill="#2A2E37"/>
<path id="Vector_2" d="M158.849 58.008C161.911 58.008 164.394 55.5256 164.394 52.4635C164.394 49.4013 161.911 46.9189 158.849 46.9189C155.787 46.9189 153.305 49.4013 153.305 52.4635C153.305 55.5256 155.787 58.008 158.849 58.008Z" fill="#2A2E37"/>
<path id="Vector_3" d="M166.964 36.3708C169.055 36.3708 170.751 34.6756 170.751 32.5843C170.751 30.4931 169.055 28.7979 166.964 28.7979C164.873 28.7979 163.178 30.4931 163.178 32.5843C163.178 34.6756 164.873 36.3708 166.964 36.3708Z" fill="#2A2E37"/>
<path id="Vector_4" d="M29.8383 57.8728C31.9295 57.8728 33.6248 56.1775 33.6248 54.0863C33.6248 51.9951 31.9295 50.2998 29.8383 50.2998C27.747 50.2998 26.0518 51.9951 26.0518 54.0863C26.0518 56.1775 27.747 57.8728 29.8383 57.8728Z" fill="#2A2E37"/>
<path id="Vector_5" d="M17.5321 130.897C21.4158 130.897 24.5641 127.749 24.5641 123.865C24.5641 119.981 21.4158 116.833 17.5321 116.833C13.6484 116.833 10.5 119.981 10.5 123.865C10.5 127.749 13.6484 130.897 17.5321 130.897Z" fill="#2A2E37"/>
</g>
<g id="Vector_6" filter="url(#filter0_d_1310_28061)">
<path d="M145.095 71.5454L146.177 158.635C146.177 161.61 143.743 163.909 140.768 163.909H55.8419C52.8668 163.909 50.4326 161.475 50.4326 158.635V46.6627C50.4326 43.6876 52.8668 41.3887 55.8419 41.3887H117.372L145.095 71.5454Z" fill="url(#paint0_linear_1310_28061)"/>
</g>
<path id="Vector_7" d="M94.6541 59.6459H64.7678C63.8212 59.6459 63.0098 58.8345 63.0098 57.8879C63.0098 56.9413 63.8212 56.1299 64.7678 56.1299H94.6541C95.6007 56.1299 96.4121 56.9413 96.4121 57.8879C96.4121 58.8345 95.6007 59.6459 94.6541 59.6459Z" fill="#A9AFC3"/>
<path id="Vector_8" d="M80.4547 69.3813H64.7678C63.8212 69.3813 63.0098 68.5699 63.0098 67.6233C63.0098 66.6766 63.8212 65.8652 64.7678 65.8652H80.3195C81.2661 65.8652 82.0775 66.6766 82.0775 67.6233C82.0775 68.5699 81.2661 69.3813 80.4547 69.3813Z" fill="#A9AFC3"/>
<path id="Vector_9" d="M117.373 41.3887V65.46C117.373 68.8408 120.348 71.5454 123.729 71.5454H145.096" fill="#3A4050"/>
<path id="Vector 14" d="M76.4423 59.3274L82.868 36.6625L109.261 39.7026L100.046 54.4731L107.183 60.1755L91.8173 93.7856L92.6735 67.7648L76.4423 59.3274Z" fill="#2A2E37"/>
<path id="Vector 15" d="M82.1462 33.3484L77.0322 25.6504" stroke="#A9AFC3" stroke-width="2.70464"/>
<path id="Vector 16" d="M95.7849 29.4998L96.3857 10" stroke="#A9AFC3" stroke-width="2.70464"/>
<path id="Vector 17" d="M108.011 33.5314L116.175 15.8125" stroke="#A9AFC3" stroke-width="2.70464"/>
<path id="Vector_10" d="M80.2414 130.868C79.6733 130.868 79.2189 130.641 78.7644 130.3C77.9691 129.505 77.9691 128.142 78.7644 127.346C83.9906 122.234 90.9209 119.394 98.3057 119.394C105.691 119.394 112.621 122.234 117.847 127.346C118.642 128.142 118.642 129.505 117.847 130.3C117.052 131.096 115.688 131.096 114.893 130.3C110.462 125.869 104.554 123.484 98.3057 123.484C92.0571 123.484 86.1492 125.869 81.7183 130.3C81.2639 130.641 80.8095 130.868 80.2414 130.868Z" fill="#A9AFC3"/>
<path id="Vector_11" d="M87.399 100.421L90.1256 97.6939C90.9209 96.8987 90.9209 95.5353 90.1256 94.74C89.3304 93.9447 87.967 93.9447 87.1717 94.74L84.445 97.4667L81.7183 94.74C80.9231 93.9447 79.5597 93.9447 78.7644 94.74C77.9691 95.5353 77.9691 96.8987 78.7644 97.6939L81.4911 100.421L78.7644 103.147C77.9691 103.943 77.9691 105.306 78.7644 106.101C79.2189 106.556 79.6733 106.669 80.2414 106.669C80.8095 106.669 81.2639 106.442 81.7183 106.101L84.445 103.375L87.1717 106.101C87.6262 106.556 88.0806 106.669 88.6487 106.669C89.2168 106.669 89.6712 106.442 90.1256 106.101C90.9209 105.306 90.9209 103.943 90.1256 103.147L87.399 100.421Z" fill="#A9AFC3"/>
<path id="Vector_12" d="M115.006 100.421L117.733 97.6939C118.528 96.8987 118.528 95.5353 117.733 94.74C116.938 93.9447 115.574 93.9447 114.779 94.74L112.052 97.4667L109.326 94.74C108.53 93.9447 107.167 93.9447 106.372 94.74C105.577 95.5353 105.577 96.8987 106.372 97.6939L109.099 100.421L106.372 103.147C105.577 103.943 105.577 105.306 106.372 106.101C106.826 106.556 107.281 106.669 107.849 106.669C108.417 106.669 108.871 106.442 109.326 106.101L112.052 103.375L114.779 106.101C115.234 106.556 115.688 106.669 116.256 106.669C116.824 106.669 117.279 106.442 117.733 106.101C118.528 105.306 118.528 103.943 117.733 103.147L115.006 100.421Z" fill="#A9AFC3"/>
</g>
</g>
<defs>
<filter id="filter0_d_1310_28061" x="20.6816" y="26.5131" width="155.246" height="182.023" filterUnits="userSpaceOnUse" color-interpolation-filters="sRGB">
<feFlood flood-opacity="0" result="BackgroundImageFix"/>
<feColorMatrix in="SourceAlpha" type="matrix" values="0 0 0 0 0 0 0 0 0 0 0 0 0 0 0 0 0 0 127 0" result="hardAlpha"/>
<feOffset dy="14.8755"/>
<feGaussianBlur stdDeviation="14.8755"/>
<feColorMatrix type="matrix" values="0 0 0 0 0 0 0 0 0 0 0 0 0 0 0 0 0 0 0.27 0"/>
<feBlend mode="normal" in2="BackgroundImageFix" result="effect1_dropShadow_1310_28061"/>
<feBlend mode="normal" in="SourceGraphic" in2="effect1_dropShadow_1310_28061" result="shape"/>
</filter>
<linearGradient id="paint0_linear_1310_28061" x1="98.2736" y1="38.5547" x2="98.2736" y2="165.23" gradientUnits="userSpaceOnUse">
<stop stop-color="#5C6479"/>
<stop offset="0.9964" stop-color="#5C6479"/>
</linearGradient>
<clipPath id="clip0_1310_28061">
<rect width="181" height="181" fill="white" transform="translate(0.5)"/>
</clipPath>
</defs>
</svg>
