<svg xmlns="http://www.w3.org/2000/svg" width="156" height="149" viewBox="0 0 156 149" fill="none">
  <path d="M144.479 33.3549C144.326 33.2014 144.326 33.2014 144.479 33.3549C144.173 33.6618 143.868 33.9687 143.563 33.9687C138.986 33.2015 138.681 32.7411 138.223 34.7359C138.223 34.8894 138.071 35.0428 137.766 35.0428C136.393 34.7359 135.63 34.8894 135.63 34.2756C137.003 26.6032 143.106 33.2014 143.716 29.5187C143.716 29.3652 143.868 29.3652 144.021 29.3652L146.309 29.8256C146.462 29.8256 146.462 29.979 146.462 30.1325C146.157 31.9739 147.377 31.9739 149.361 32.2808C151.802 32.7411 153.022 34.429 152.565 36.8842C152.412 37.3446 152.412 37.8049 152.107 37.8049C149.818 37.3446 149.818 37.6515 150.123 36.5773C150.429 33.8152 144.479 35.5032 144.479 33.3549Z" fill="#949BAB"/>
  <path d="M27.9646 5.63277C26.9289 6.71442 26.7809 8.56869 27.8166 9.65035C28.4084 10.423 29.4441 10.732 30.4798 10.423C30.9237 11.041 30.9237 11.8137 30.6278 12.4317L29.0003 14.9041C28.8523 15.0586 28.7044 15.3677 28.7044 15.5222L27.0769 13.6679C27.5207 12.1227 26.781 10.5775 25.3014 10.1139C23.8219 9.65035 22.3423 10.423 21.8984 11.9682C21.4546 13.5134 22.1943 15.0586 23.6739 15.5222C24.1178 15.6767 24.7096 15.6767 25.1534 15.5222L29.4441 20.3124C29.0003 21.8576 29.74 23.4028 31.2196 23.8664C32.6991 24.33 34.1787 23.5574 34.6226 22.0121C34.6226 21.8576 34.6226 21.8576 34.7705 21.7031C34.7705 21.394 34.7705 21.085 34.7705 20.9305C34.6226 19.3852 33.291 18.1491 31.6635 18.4581C31.5155 18.4581 31.5155 18.4581 31.3675 18.4581C30.9237 17.84 30.7757 17.0674 31.2196 16.4493L32.8471 13.977C33.8828 12.2772 33.7348 10.1139 32.5512 8.56869C32.5512 8.41417 32.5512 8.25965 32.6991 8.25965C32.6991 7.9506 32.6991 7.64156 32.6991 7.48704C32.5512 5.94181 31.2196 4.86016 29.74 5.01468C28.8523 5.01468 28.4085 5.1692 27.9646 5.63277ZM23.8219 12.1227C24.2657 11.8137 24.7096 11.8137 25.1534 12.1227C25.4494 12.5863 25.4494 13.0498 25.1534 13.5134C24.7096 13.8224 24.2657 13.8224 23.8219 13.5134C23.378 13.2044 23.378 12.5863 23.8219 12.1227ZM32.6991 20.7759C32.8471 20.9305 32.8471 21.085 32.8471 21.2395C32.8471 21.7031 32.4032 22.1666 31.8114 22.1666C31.3675 22.1666 30.9237 21.7031 30.9237 21.085C30.9237 20.9305 31.0716 20.6214 31.0716 20.4669C31.2196 20.1579 31.5155 20.1579 31.8114 20.1579C32.2553 20.3124 32.5512 20.4669 32.6991 20.7759ZM29.0003 7.02347C29.2962 6.5599 29.888 6.5599 30.3319 6.86895C30.4798 6.86895 30.4798 7.02347 30.4798 7.17799C30.4798 7.33251 30.4798 7.33251 30.6278 7.48704C30.6278 7.64156 30.6278 7.64156 30.6278 7.79608C30.6278 7.9506 30.6278 7.9506 30.6278 7.9506C30.4798 8.10512 30.3319 8.25965 30.1839 8.41417C29.74 8.72321 29.1482 8.41417 29.0003 7.9506C28.8523 7.79608 28.8523 7.33251 29.0003 7.02347Z" fill="#3E4450"/>
  <path d="M104.757 0.52349L102.44 1.81208C100.124 -0.604027 96.5718 -0.604027 94.2553 1.81208C93.0198 3.10067 92.4021 5.03356 92.711 6.96644L90.2401 8.09396C89.7768 8.25503 89.6223 8.89933 89.9312 9.22148L90.8578 11.1544C91.0122 11.6376 91.6299 11.7987 91.9388 11.4765L94.2553 10.1879C96.5718 12.604 100.124 12.604 102.44 10.1879C103.676 8.89933 104.293 6.96644 103.984 5.03356L106.301 3.74497C106.764 3.58389 106.919 2.9396 106.61 2.61745L105.683 0.684563C105.683 0.523489 105.066 0.362416 104.757 0.52349ZM99.6604 8.73826C98.2705 9.54362 96.5718 8.89933 95.7996 7.44967C95.0274 6 95.6452 4.22819 97.0351 3.42282C98.4249 2.61745 100.124 3.26174 100.896 4.71141C101.514 6.16107 101.05 7.93289 99.6604 8.73826Z" fill="#949BAB"/>
  <path d="M79.9778 145.276L80.1364 144.98C80.612 144.089 80.612 143.199 80.1364 142.309L78.7095 139.49C78.551 139.341 78.551 139.045 78.7095 138.896L79.1851 137.858L79.9778 138.303C80.2949 138.451 80.612 138.303 80.7705 138.006C80.7705 137.858 80.7705 137.709 80.7705 137.709L80.1364 134.445C80.1364 134.148 79.8193 134 79.5022 134H79.3437L76.1729 135.335C75.8559 135.484 75.6973 135.78 75.8559 136.077C75.8559 136.226 76.0144 136.226 76.1729 136.374L76.9656 136.819L76.49 137.858C76.3315 138.006 76.1729 138.154 76.0144 138.154L72.6851 138.6C71.7339 138.748 70.7827 139.341 70.4656 140.083L70.3071 140.38C68.8803 140.38 67.7705 141.419 67.7705 142.754C67.7705 144.089 68.8803 145.128 70.3071 145.128C71.7339 145.128 72.8437 144.089 72.8437 142.754C72.8437 142.309 72.6851 141.864 72.3681 141.567L72.5266 141.27C72.6851 141.122 72.8437 140.974 73.0022 140.974L75.8559 140.528C76.1729 140.528 76.49 140.677 76.6485 140.974L77.9168 143.496C78.0754 143.644 78.0754 143.941 77.9168 144.089L77.7583 144.386C76.3315 144.386 75.2217 145.573 75.3803 146.76C75.3803 148.096 76.6486 149.134 77.9168 148.986C79.3437 148.986 80.4534 147.799 80.2949 146.612C80.4534 146.167 80.2949 145.722 79.9778 145.276ZM69.99 143.644C69.5144 143.496 69.3559 142.902 69.673 142.606C69.8315 142.161 70.4656 142.012 70.7827 142.309C71.2583 142.457 71.4168 143.051 71.0998 143.348C70.9412 143.644 70.3071 143.793 69.99 143.644ZM77.4412 147.354C76.9656 147.205 76.8071 146.612 77.1242 146.315C77.2827 145.87 77.9168 145.722 78.2339 146.018C78.551 146.315 78.8681 146.76 78.551 147.057C78.3925 147.354 77.9168 147.502 77.4412 147.354Z" fill="#3E4450"/>
  <path d="M85.3208 114.013L14.0971 118.694L8.33756 31.0707C8.15007 28.2182 10.2939 25.7397 13.1592 25.5513L64.3711 22.1851L80.2002 36.1103L85.3208 114.013Z" fill="#2E333D" stroke="#3E4450" stroke-width="1.5905" stroke-miterlimit="10" stroke-linejoin="round"/>
  <path d="M64.4072 22.8066L64.9932 31.7208C65.2105 35.0274 68.0672 37.5317 71.3738 37.3144L80.2363 36.7318" fill="#3E4450"/>
  <g opacity="0.5">
    <path d="M42.2853 54.8656L30.0671 55.8121C29.5426 55.8556 29.1474 55.4938 29.1269 55.101C29.103 54.6428 29.5356 54.2782 29.9852 54.2409L42.2033 53.2943C42.7279 53.2509 43.1231 53.6126 43.1435 54.0054C43.164 54.3982 42.8098 54.8221 42.2853 54.8656Z" fill="#686F80"/>
    <path d="M43.8566 78.7044L31.6384 79.651C31.1138 79.6945 30.7187 79.3327 30.6982 78.9399C30.6743 78.4816 31.1068 78.117 31.5565 78.0798L43.7746 77.1332C44.2992 77.0897 44.6944 77.4515 44.7148 77.8443C44.7353 78.2371 44.3811 78.661 43.8566 78.7044Z" fill="#686F80"/>
    <path d="M71.2165 52.9444L57.1293 54.0345C56.6049 54.0775 56.2099 53.7196 56.1894 53.3309C56.1655 52.8776 56.5979 52.5169 57.0474 52.48L71.0597 51.3961C71.5841 51.3531 71.9791 51.711 71.9996 52.0996C72.095 52.4821 71.7409 52.9014 71.2165 52.9444Z" fill="#5E6677"/>
    <path d="M72.779 76.7852L58.6918 77.8753C58.1674 77.9183 57.7724 77.5604 57.7519 77.1718C57.728 76.7184 58.1604 76.3577 58.6099 76.3208L72.6222 75.2369C73.1466 75.1939 73.5417 75.5518 73.5621 75.9404C73.6575 76.3229 73.3034 76.7422 72.779 76.7852Z" fill="#5E6677"/>
    <path d="M63.0338 71.2235L48.9467 72.3132C48.4223 72.3561 48.0272 71.9984 48.0068 71.6099C47.9829 71.1567 48.4153 70.7962 48.8648 70.7593L62.9519 69.6697C63.4763 69.6267 63.8713 69.9845 63.8918 70.3729C63.9157 70.8261 63.4833 71.1867 63.0338 71.2235Z" fill="#686F80"/>
    <path d="M64.605 95.0634L50.518 96.1532C49.9936 96.1961 49.5985 95.8384 49.5781 95.4499C49.5542 94.9966 49.9866 94.636 50.4361 94.5992L64.5231 93.5094C65.0475 93.4664 65.4426 93.8242 65.463 94.2127C65.4869 94.666 65.0545 95.0266 64.605 95.0634Z" fill="#686F80"/>
    <path d="M53.191 54.1413L46.3569 54.6607C45.8314 54.7059 45.4356 54.3298 45.4151 53.9213C45.3911 53.4448 45.8244 53.0658 46.2748 53.027L53.1089 52.5076C53.6344 52.4624 54.0302 52.8386 54.0507 53.247C54.1497 53.717 53.7164 54.0961 53.191 54.1413Z" fill="#0E1016"/>
    <path d="M54.7633 77.981L47.9291 78.5004C47.4037 78.5455 47.0078 78.1694 46.9873 77.7611C46.9634 77.2846 47.3967 76.9056 47.8471 76.8669L54.6812 76.3475C55.2067 76.3024 55.6025 76.6784 55.623 77.0868C55.722 77.5568 55.2887 77.9358 54.7633 77.981Z" fill="#0E1016"/>
    <path d="M25.2298 55.9316L20.1956 56.3699C19.6697 56.4157 19.2735 56.0348 19.253 55.6212C19.229 55.1386 19.5876 54.7612 20.1135 54.7154L25.1477 54.2771C25.6736 54.2313 26.0698 54.6122 26.0903 55.0258C26.1143 55.5084 25.7557 55.8858 25.2298 55.9316Z" fill="#0E1016"/>
    <path d="M26.802 79.7734L21.7679 80.2117C21.2419 80.2575 20.8457 79.8766 20.8252 79.463C20.8013 78.9804 21.1599 78.603 21.6858 78.5572L26.7199 78.1189C27.2459 78.0731 27.6421 78.454 27.6626 78.8676C27.6866 79.3502 27.328 79.7276 26.802 79.7734Z" fill="#0E1016"/>
    <path d="M45.0649 60.6317L37.7072 61.1937C37.1819 61.2387 36.7861 60.8643 36.7656 60.4577C36.7417 59.9833 37.1749 59.606 37.6251 59.5674L44.9829 59.0054C45.5082 58.9604 45.9039 59.3348 45.9244 59.7414C46.02 60.1415 45.5903 60.5867 45.0649 60.6317Z" fill="#686F80"/>
    <path d="M46.6284 84.4726L39.2707 85.0347C38.7454 85.0797 38.3496 84.7052 38.3291 84.2986C38.3052 83.8242 38.7384 83.4468 39.1886 83.4082L46.5464 82.8461C47.0717 82.8011 47.4674 83.1756 47.4879 83.5822C47.5835 83.9824 47.1537 84.4276 46.6284 84.4726Z" fill="#686F80"/>
    <path d="M67.798 59.1578L49.1416 60.4715C48.6174 60.5138 48.2225 60.1617 48.2021 59.7793C48.1782 59.3333 48.6104 58.9784 49.0597 58.9421L67.7161 57.6285C68.2403 57.5861 68.6352 57.9383 68.6557 58.3206C68.6761 58.703 68.2473 59.1216 67.798 59.1578Z" fill="#686F80"/>
    <path d="M69.3693 83.0006L50.7129 84.3144C50.1887 84.3567 49.7938 84.0046 49.7734 83.6222C49.7495 83.1761 50.1817 82.8212 50.631 82.7849L69.2874 81.4711C69.8116 81.4288 70.2065 81.7809 70.2269 82.1633C70.2474 82.5457 69.8186 82.9643 69.3693 83.0006Z" fill="#686F80"/>
    <path d="M32.8805 61.2997L20.5924 62.3139C20.0679 62.3572 19.6728 61.9969 19.6523 61.6057C19.6284 61.1493 20.0609 60.7861 20.5105 60.749L32.7986 59.7349C33.3231 59.6916 33.7182 60.0519 33.7387 60.4431C33.7592 60.8343 33.405 61.2565 32.8805 61.2997Z" fill="#5E6677"/>
    <path d="M34.4528 85.1406L22.1646 86.1547C21.6402 86.198 21.245 85.8377 21.2246 85.4465C21.2007 84.9901 21.6332 84.627 22.0827 84.5899L34.3709 83.5757C34.8954 83.5324 35.2905 83.8927 35.311 84.2839C35.3314 84.6752 34.9773 85.0973 34.4528 85.1406Z" fill="#5E6677"/>
    <path d="M55.0979 65.7562L38.0957 67.0647C37.5715 67.107 37.1766 66.7548 37.1562 66.3723C37.1323 65.9261 37.5645 65.5711 38.0138 65.5349L55.0909 64.2203C55.6151 64.1779 56.01 64.5302 56.0305 64.9126C56.0543 65.3588 55.6221 65.7138 55.0979 65.7562Z" fill="#0E1016"/>
    <path d="M56.6692 89.597L39.667 90.9056C39.1428 90.9479 38.7479 90.5956 38.7275 90.2132C38.7036 89.767 39.1358 89.412 39.5851 89.3757L56.6622 88.0611C57.1864 88.0188 57.5813 88.371 57.6018 88.7535C57.6257 89.1997 57.1934 89.5547 56.6692 89.597Z" fill="#0E1016"/>
    <path d="M33.2722 67.1621L20.984 68.1762C20.4595 68.2195 20.0644 67.8592 20.0439 67.468C20.02 67.0116 20.4525 66.6484 20.9021 66.6113L33.1902 65.5972C33.7147 65.5539 34.1098 65.9142 34.1303 66.3054C34.1508 66.6966 33.7966 67.1188 33.2722 67.1621Z" fill="#686F80"/>
    <path d="M34.8347 91.0019L22.5465 92.016C22.022 92.0593 21.6269 91.699 21.6064 91.3078C21.5825 90.8514 22.015 90.4883 22.4646 90.4512L34.7527 89.4371C35.2772 89.3938 35.6723 89.7541 35.6928 90.1453C35.7133 90.5365 35.3591 90.9586 34.8347 91.0019Z" fill="#686F80"/>
    <path d="M44.2709 72.4321L34.894 73.1564C34.369 73.2007 33.9736 72.832 33.9531 72.4316C33.9292 71.9645 34.362 71.5929 34.812 71.5549L44.189 70.8306C44.7139 70.7863 45.1093 71.155 45.1298 71.5554C45.1537 72.0225 44.7959 72.3878 44.2709 72.4321Z" fill="#5E6677"/>
    <path d="M45.8344 96.2739L36.4574 96.9982C35.9325 97.0425 35.5371 96.6738 35.5166 96.2734C35.4927 95.8063 35.9255 95.4347 36.3754 95.3967L45.7524 94.6723C46.2774 94.628 46.6728 94.9968 46.6933 95.3972C46.7172 95.8643 46.3593 96.2296 45.8344 96.2739Z" fill="#5E6677"/>
    <path d="M28.9446 73.3909L21.3671 74.0369C20.8419 74.0816 20.4463 73.709 20.4258 73.3044C20.4019 72.8323 20.8349 72.4567 21.2851 72.4184L28.8626 71.7724C29.3878 71.7276 29.7834 72.1003 29.8039 72.5049C29.9029 72.9706 29.4698 73.3461 28.9446 73.3909Z" fill="#0E1016"/>
    <path d="M30.5081 97.2307L22.9306 97.8767C22.4054 97.9215 22.0098 97.5488 21.9893 97.1442C21.9653 96.6721 22.3984 96.2966 22.8485 96.2582L30.4261 95.6122C30.9512 95.5675 31.3469 95.9401 31.3674 96.3447C31.4663 96.8104 31.0333 97.186 30.5081 97.2307Z" fill="#0E1016"/>
    <path d="M54.0274 44.808L19.6056 47.3158C19.0819 47.3558 18.6873 47.0229 18.6669 46.6614C18.643 46.2397 19.0749 45.9042 19.5238 45.8699L53.9456 43.3621C54.4693 43.3221 54.8638 43.655 54.8842 44.0165C54.9081 44.4382 54.5511 44.768 54.0274 44.808Z" fill="#0E1016"/>
  </g>
  <path d="M32.8423 62.4525L33.1338 66.8879C33.2024 67.9315 33.0442 69.2521 30.8485 69.3964L30.3605 69.4285L30.6692 74.1248L31.1572 74.0927C32.621 73.9965 33.6483 74.7151 33.7512 76.2805L34.0599 80.9768C34.3343 85.1513 36.7015 87.6161 40.849 87.3434L42.5568 87.2312L42.2481 82.5349L40.5403 82.6471C39.8084 82.6952 38.8154 82.4985 38.6953 80.6721L38.3523 75.454C38.2323 73.6277 37.4146 72.3712 35.8994 71.6847C37.3117 70.8058 37.9408 69.1922 37.8379 67.6268L37.4949 62.4087C37.392 60.8432 38.3336 60.2573 39.0655 60.2092L40.5293 60.113L40.2034 55.1557L38.4957 55.268C34.5921 55.5246 32.5507 58.017 32.8423 62.4525Z" fill="#949BAB"/>
  <path d="M59.5497 64.9447L59.2635 60.5906C58.9942 56.4927 56.5802 54.079 52.3384 54.3579L50.5918 54.4727L50.8948 59.0829L52.3919 58.9845C53.1405 58.9353 54.1554 59.1258 54.2732 60.9186L54.6099 66.0411C54.7278 67.834 55.5605 69.0654 57.1081 69.7353C55.911 70.5857 55.2635 72.1716 55.3645 73.7084L55.7012 78.8308C55.819 80.6237 54.5883 80.9618 54.0893 80.9946L52.3427 81.1094L52.6457 85.7196L54.3923 85.6048C58.634 85.326 60.7282 82.8733 60.442 78.5192L60.1558 74.1651C60.0548 72.6284 60.7528 71.8108 62.2499 71.7124L62.7489 71.6796L62.4459 67.0694L61.9469 67.1022C60.4498 67.2006 59.6507 66.4814 59.5497 64.9447Z" fill="#949BAB"/>
  <path opacity="0.15" d="M78.5823 114.459C82.3136 114.214 85.1396 110.99 84.8943 107.259L80.605 42.0029C79.5343 42.8352 78.7898 44.0852 78.6287 45.5384L70.9307 114.962L78.5823 114.459Z" fill="black"/>
  <path d="M144.981 133.912L74.0382 126.046L83.716 38.768C84.031 35.9268 86.5758 33.8621 89.4298 34.1785L140.44 39.8348L153.585 56.3173L144.981 133.912Z" fill="#2E333D" stroke="#3E4450" stroke-width="1.5905" stroke-miterlimit="10" stroke-linejoin="round"/>
  <path d="M140.358 40.4531L139.374 49.3321C139.009 52.6256 141.383 55.5916 144.676 55.9568L153.504 56.9357" fill="#3E4450"/>
  <g opacity="0.5">
    <path d="M112.968 68.3429L100.79 66.6863C100.267 66.6179 99.9286 66.188 99.9645 65.807C100.006 65.3624 100.485 65.1036 100.933 65.1622L113.111 66.8188C113.635 66.8872 113.972 67.3171 113.937 67.6981C113.901 68.0791 113.491 68.4113 112.968 68.3429Z" fill="#686F80"/>
    <path d="M110.342 92.0899L98.1638 90.4333C97.6406 90.3649 97.3027 89.935 97.3385 89.554C97.3803 89.1095 97.8587 88.8506 98.3071 88.9093L110.485 90.5659C111.009 90.6343 111.346 91.0642 111.311 91.4452C111.275 91.8262 110.865 92.1584 110.342 92.0899Z" fill="#686F80"/>
    <path d="M141.773 71.5388L127.733 69.657C127.21 69.5893 126.872 69.1637 126.908 68.7866C126.95 68.3465 127.428 68.0903 127.876 68.1483L141.842 70.0204C142.365 70.0881 142.702 70.5137 142.667 70.8909C142.706 71.2777 142.296 71.6065 141.773 71.5388Z" fill="#5E6677"/>
    <path d="M139.147 95.2862L125.107 93.4042C124.584 93.3365 124.246 92.9109 124.282 92.5337C124.324 92.0936 124.802 91.8374 125.25 91.8954L139.216 93.7677C139.739 93.8354 140.076 94.261 140.041 94.6382C140.079 95.0251 139.67 95.3539 139.147 95.2862Z" fill="#5E6677"/>
    <path d="M130.523 88.1002L116.483 86.219C115.96 86.1513 115.622 85.7259 115.658 85.3488C115.7 84.9089 116.178 84.6528 116.626 84.7108L130.666 86.592C131.189 86.6597 131.527 87.0851 131.491 87.4622C131.449 87.9021 130.971 88.1583 130.523 88.1002Z" fill="#686F80"/>
    <path d="M127.889 111.847L113.849 109.966C113.326 109.898 112.988 109.473 113.024 109.096C113.066 108.656 113.544 108.4 113.992 108.458L128.032 110.339C128.555 110.407 128.893 110.832 128.857 111.209C128.815 111.649 128.337 111.905 127.889 111.847Z" fill="#686F80"/>
    <path d="M123.843 69.4672L117.029 68.476C116.504 68.4048 116.166 67.9576 116.202 67.5613C116.244 67.0988 116.723 66.8296 117.173 66.8906L123.986 67.8818C124.511 67.953 124.85 68.4002 124.814 68.7965C124.847 69.2691 124.367 69.5384 123.843 69.4672Z" fill="#0E1016"/>
    <path d="M121.209 93.2136L114.395 92.2222C113.871 92.1511 113.532 91.7038 113.568 91.3074C113.61 90.845 114.089 90.5757 114.539 90.6367L121.353 91.628C121.877 91.6992 122.216 92.1464 122.18 92.5428C122.213 93.0155 121.733 93.2848 121.209 93.2136Z" fill="#0E1016"/>
    <path d="M96.0152 66.304L90.9871 65.6127C90.4618 65.5404 90.1226 65.0866 90.1585 64.6844C90.2005 64.2151 90.6057 63.9315 91.131 64.0037L96.1591 64.695C96.6845 64.7672 97.0237 65.2211 96.9877 65.6233C96.9458 66.0926 96.5406 66.3762 96.0152 66.304Z" fill="#0E1016"/>
    <path d="M93.3815 90.0513L88.3533 89.36C87.828 89.2877 87.4888 88.8338 87.5247 88.4315C87.5667 87.9622 87.9719 87.6785 88.4972 87.7508L93.5253 88.4422C94.0507 88.5144 94.3899 88.9683 94.354 89.3706C94.312 89.8399 93.9068 90.1236 93.3815 90.0513Z" fill="#0E1016"/>
    <path d="M114.703 74.4427L107.368 73.3851C106.843 73.3143 106.505 72.8691 106.54 72.4746C106.582 72.0143 107.062 71.7463 107.511 71.807L114.847 72.8645C115.371 72.9354 115.71 73.3805 115.674 73.775C115.713 74.1797 115.227 74.5135 114.703 74.4427Z" fill="#686F80"/>
    <path d="M112.069 98.1888L104.734 97.1312C104.209 97.0604 103.871 96.6152 103.907 96.2207C103.949 95.7604 104.428 95.4924 104.877 95.5531L112.213 96.6106C112.737 96.6815 113.076 97.1266 113.04 97.5211C113.079 97.9258 112.594 98.2596 112.069 98.1888Z" fill="#686F80"/>
    <path d="M137.317 77.1077L118.742 74.5482C118.219 74.4815 117.882 74.0622 117.918 73.6905C117.959 73.257 118.437 73.0045 118.885 73.0617L137.46 75.6212C137.983 75.6879 138.32 76.1072 138.284 76.4789C138.249 76.8505 137.765 77.1649 137.317 77.1077Z" fill="#686F80"/>
    <path d="M134.692 100.855L116.117 98.2961C115.594 98.2294 115.257 97.8101 115.293 97.4385C115.334 97.005 115.812 96.7525 116.26 96.8097L134.835 99.369C135.358 99.4358 135.695 99.855 135.659 100.227C135.624 100.598 135.14 100.913 134.692 100.855Z" fill="#686F80"/>
    <path d="M102.578 73.0258L90.3209 71.429C89.7978 71.3609 89.4599 70.9326 89.4957 70.5531C89.5375 70.1103 90.0158 69.8524 90.4642 69.9108L102.721 71.5075C103.244 71.5757 103.582 72.0039 103.546 72.3835C103.51 72.7631 103.101 73.0939 102.578 73.0258Z" fill="#5E6677"/>
    <path d="M99.935 96.7738L87.6783 95.1771C87.1552 95.1089 86.8173 94.6807 86.8532 94.3011C86.895 93.8583 87.3732 93.6004 87.8216 93.6588L100.078 95.2556C100.601 95.3237 100.939 95.752 100.903 96.1315C100.868 96.5111 100.458 96.842 99.935 96.7738Z" fill="#5E6677"/>
    <path d="M123.655 81.3532L106.711 79.1267C106.188 79.06 105.851 78.6406 105.886 78.2688C105.928 77.8352 106.406 77.5826 106.854 77.6398L123.873 79.8758C124.395 79.9426 124.733 80.362 124.697 80.7337C124.655 81.1674 124.178 81.4199 123.655 81.3532Z" fill="#0E1016"/>
    <path d="M121.021 105.1L104.077 102.874C103.554 102.807 103.217 102.388 103.253 102.016C103.294 101.582 103.772 101.33 104.22 101.387L121.239 103.623C121.762 103.69 122.099 104.109 122.063 104.481C122.022 104.914 121.544 105.167 121.021 105.1Z" fill="#0E1016"/>
    <path d="M101.932 78.8666L89.6754 77.2699C89.1523 77.2017 88.8144 76.7735 88.8502 76.3939C88.892 75.9511 89.3703 75.6932 89.8187 75.7516L102.075 77.3484C102.598 77.4165 102.936 77.8448 102.9 78.2243C102.865 78.6039 102.455 78.9348 101.932 78.8666Z" fill="#686F80"/>
    <path d="M99.2982 102.613L87.0416 101.017C86.5185 100.949 86.1806 100.52 86.2164 100.141C86.2582 99.6981 86.7365 99.4402 87.1849 99.4987L99.4415 101.095C99.9647 101.163 100.303 101.592 100.267 101.971C100.231 102.351 99.8214 102.682 99.2982 102.613Z" fill="#686F80"/>
    <path d="M111.845 85.95L102.498 84.6403C101.974 84.5706 101.636 84.1326 101.671 83.7443C101.713 83.2913 102.192 83.0275 102.641 83.0873L111.989 84.3969C112.512 84.4666 112.851 84.9047 112.815 85.2929C112.773 85.7459 112.369 86.0197 111.845 85.95Z" fill="#5E6677"/>
    <path d="M109.22 109.698L99.8726 108.388C99.3488 108.318 99.0106 107.88 99.0464 107.492C99.0883 107.039 99.5671 106.776 100.016 106.835L109.364 108.145C109.887 108.215 110.226 108.653 110.19 109.041C110.148 109.494 109.744 109.767 109.22 109.698Z" fill="#5E6677"/>
    <path d="M96.5858 84.1821L89.0226 83.1653C88.4984 83.0948 88.1599 82.652 88.1958 82.2596C88.2377 81.8017 88.7169 81.535 89.1662 81.5954L96.7293 82.6122C97.2535 82.6827 97.592 83.1255 97.5562 83.518C97.5892 83.986 97.11 84.2526 96.5858 84.1821Z" fill="#0E1016"/>
    <path d="M93.9608 107.928L86.3976 106.911C85.8734 106.841 85.5349 106.398 85.5708 106.006C85.6127 105.548 86.0919 105.281 86.5412 105.342L94.1043 106.358C94.6285 106.429 94.967 106.872 94.9312 107.264C94.9642 107.732 94.485 107.999 93.9608 107.928Z" fill="#0E1016"/>
    <path d="M126.255 60.6535L91.9676 56.3494C91.4457 56.2857 91.1086 55.8855 91.1443 55.5308C91.186 55.1169 91.6632 54.8759 92.1106 54.9305L126.398 59.2345C126.92 59.2982 127.257 59.6984 127.221 60.0532C127.18 60.4671 126.777 60.7172 126.255 60.6535Z" fill="#0E1016"/>
  </g>
  <path d="M97.107 94.6358L101.95 95.1728L115.888 71.1726L110.802 70.6087L97.107 94.6358Z" fill="#949BAB"/>
  <path d="M118.028 74.8164L117.326 81.1541L124.875 86.3654L116.367 89.7963L115.696 95.8459L130.891 89.3655L131.402 84.7563L118.028 74.8164Z" fill="#949BAB"/>
  <path d="M17.1278 117.343L14.3962 112.364C13.3718 110.475 11.1524 109.788 9.27435 110.818L8.76216 110.99L8.24997 110.131C8.07924 109.788 7.73778 109.788 7.39633 109.959C7.2256 109.959 7.22561 110.131 7.05488 110.303L5.68905 113.737C5.51832 114.081 5.68905 114.424 6.03051 114.596C6.03051 114.596 6.03051 114.596 6.20124 114.596L9.78653 115.283C10.128 115.283 10.4694 115.111 10.4694 114.768C10.4694 114.596 10.4694 114.424 10.4694 114.424L9.95725 113.566L10.4694 113.222C10.9816 112.879 11.8353 113.05 12.006 113.737L14.7376 118.717C14.2255 119.576 14.2255 120.606 14.7376 121.465C15.4206 122.838 16.9571 123.182 18.3229 122.495C18.8351 122.151 19.1766 121.808 19.518 121.293C19.6888 121.121 19.6888 120.778 19.6888 120.606C19.8595 119.061 18.8351 117.687 17.2986 117.515C17.2986 117.343 17.1278 117.343 17.1278 117.343ZM16.7864 120.778C16.6156 120.778 16.6156 120.778 16.7864 120.778C16.2742 120.434 16.1035 119.919 16.4449 119.404C16.6157 119.061 16.9571 118.889 17.2986 118.889C17.4693 118.889 17.8108 119.061 17.9815 119.232C18.3229 119.576 18.3229 120.091 17.9815 120.434C17.4693 120.949 17.1278 120.949 16.7864 120.778Z" fill="#949BAB"/>
  <path d="M2.10075 112.881C0.905655 113.568 0.393473 115.285 1.07639 116.487C1.58857 117.346 2.44221 117.861 3.46658 117.861L8.24696 126.447C8.58842 127.133 9.27133 127.305 9.95424 126.962C10.6372 126.618 10.8079 125.931 10.4664 125.245L5.68604 116.659C6.19823 115.8 6.19823 114.77 5.68604 113.911C5.00313 112.709 3.29585 112.194 2.10075 112.881ZM3.80803 115.972C3.29585 116.144 2.78367 116.144 2.61294 115.628C2.44221 115.113 2.44221 114.598 2.95439 114.426C3.46658 114.255 3.97877 114.255 4.1495 114.77C4.32023 115.285 4.14949 115.8 3.80803 115.972Z" fill="#949BAB"/>
</svg>