<svg xmlns="http://www.w3.org/2000/svg" width="16" height="16" viewBox="0 0 16 16" fill="none">
  <path d="M7.99031 10.2722L10.1512 12.7291C10.9518 13.6393 11.3522 14.0944 11.7712 13.9836C12.1902 13.8728 12.3339 13.2739 12.6212 12.0759L14.2153 5.4306C14.6579 3.58555 14.8792 2.66303 14.3872 2.208C13.8954 1.75298 13.0427 2.0915 11.3374 2.76855L3.42588 5.90966C2.062 6.45116 1.38005 6.72193 1.33675 7.1872C1.33232 7.2348 1.33225 7.28273 1.33653 7.33033C1.3784 7.7958 2.05951 8.06887 3.42174 8.61487C4.03896 8.86227 4.34758 8.986 4.56884 9.22293C4.59372 9.24953 4.61764 9.27713 4.64056 9.3056C4.84443 9.55893 4.93144 9.8914 5.10543 10.5563L5.43106 11.8007C5.60038 12.4477 5.68503 12.7712 5.90676 12.8153C6.12849 12.8594 6.32154 12.5911 6.70764 12.0546L7.99031 10.2722ZM7.99031 10.2722L7.77844 10.0514C7.53731 9.80006 7.41677 9.67447 7.41677 9.51833C7.41677 9.3622 7.53731 9.23653 7.77844 8.9852L10.1604 6.50273" stroke="#FAFAFA" stroke-width="1.5" stroke-linecap="round" stroke-linejoin="round"/>
</svg>