<svg width="32" height="32" viewBox="0 0 32 32" fill="none" xmlns="http://www.w3.org/2000/svg">
<rect width="32" height="32" rx="8" fill="#1A154F"/>
<path d="M26.2926 8.72743C26.0638 7.8454 25.3284 6.96339 24.0046 5.98151C22.9423 5.19933 21.8147 4.75 20.9159 4.75C20.7361 4.75 20.5727 4.76664 20.4092 4.79992C20.0007 4.88314 19.6411 5.18269 19.4123 5.63202C19.1345 6.16457 19.0692 6.88018 19.2489 7.31287C19.3143 7.44601 19.396 7.61241 19.4941 7.76219C18.6279 8.29474 18.1376 8.44452 18.0723 8.46118C20.3276 9.22667 22.207 10.8243 23.3836 12.9046L23.4 12.7049C23.449 12.1557 23.6124 11.5233 23.8412 10.8742C24.07 10.9408 24.2988 10.9741 24.5276 10.9741C25.1323 10.9741 25.6552 10.7245 25.9821 10.2751C26.309 9.82579 26.4397 9.22667 26.2926 8.72743Z" fill="#5E12A0"/>
<path d="M23.9395 10.3917C25.4267 10.8078 26.0313 9.64283 25.8352 8.86062C25.6228 8.07847 24.9364 7.27964 23.727 6.38097C22.5177 5.4823 21.292 5.11617 20.5075 5.2826C19.723 5.44901 19.4942 6.66388 19.6904 7.12986C19.7721 7.31292 19.9519 7.57917 20.197 7.87873C19.8865 8.09507 19.5924 8.2615 19.3472 8.41128C20.8507 9.09362 22.1581 10.1587 23.1387 11.4901C23.2531 11.0407 23.4165 10.6413 23.5636 10.2919C23.678 10.3085 23.8087 10.3418 23.9395 10.3917Z" fill="url(#paint0_radial_301_6530)"/>
<path d="M15.4251 26.7008C20.4705 26.7008 24.5607 22.5357 24.5607 17.3979C24.5607 12.2601 20.4705 8.09503 15.4251 8.09503C10.3797 8.09503 6.28955 12.2601 6.28955 17.3979C6.28955 22.5357 10.3797 26.7008 15.4251 26.7008Z" fill="url(#paint1_radial_301_6530)"/>
<path opacity="0.6" d="M25.0834 8.09498C23.8414 6.76361 22.7955 6.41412 21.5371 6.13121C20.5565 5.89822 20.818 5.3324 22.011 5.44889C21.4391 5.24918 20.8997 5.19926 20.5075 5.28247C19.723 5.44889 19.4943 6.66376 19.6904 7.12973C19.7721 7.31279 19.9519 7.57908 20.197 7.87864C19.7558 8.17819 19.3799 8.39454 19.0693 8.56097C19.2165 8.62753 19.3962 8.71069 19.6087 8.82722C20.1643 9.12678 20.769 9.62603 20.769 9.62603C19.8538 8.82722 20.0499 8.4611 21.3083 7.56242C21.7005 7.27951 22.4196 7.31279 23.0897 7.66229C23.7597 8.01176 24.5442 8.89378 24.5442 8.89378L23.7924 10.3583C23.8414 10.3749 23.8904 10.3916 23.9395 10.4082C24.4134 10.5414 24.7893 10.508 25.0834 10.3916C25.4267 10.1752 26.3255 9.44299 25.0834 8.09498Z" fill="#A98698"/>
<path d="M21.5209 6.93009C21.8478 7.06322 22.2727 7.29621 22.7957 7.64572C23.4167 8.06175 23.956 8.52774 24.2992 8.89386C23.7272 9.65936 23.3513 10.7078 23.1225 11.4401C23.237 11.6065 23.3677 11.7729 23.4821 11.9394C23.5965 11.5233 23.7926 10.9075 24.0541 10.2918C24.1195 10.3084 24.2011 10.3084 24.2829 10.3084C24.479 10.3084 24.7078 10.2751 24.8876 10.1254C25.0183 10.0255 25.1654 9.84245 25.149 9.50958C25.149 9.19342 24.9039 8.79399 24.3973 8.3114C24.0377 7.96188 23.5474 7.5791 23.0572 7.22965C21.6517 6.28105 20.6711 6.01478 20.2299 6.46411C19.9358 6.76367 19.9684 7.1298 20.0664 7.39607C19.5435 7.74554 19.1023 7.99519 18.8081 8.16162C19.0042 8.22818 19.184 8.3114 19.3801 8.39456C19.903 8.11166 20.6548 7.62906 21.5209 6.93009ZM24.6097 9.30989C24.6588 9.39311 24.6751 9.47633 24.6751 9.52623C24.6751 9.67601 24.6261 9.72592 24.5934 9.75923C24.528 9.80914 24.3973 9.84245 24.2829 9.84245C24.3809 9.64276 24.4954 9.47633 24.6097 9.30989ZM20.5731 6.83024C20.6221 6.78031 20.7529 6.74703 20.9653 6.78031C20.8019 6.91345 20.6385 7.02994 20.475 7.14643C20.4587 7.02994 20.475 6.91345 20.5731 6.83024Z" fill="#5E12A0"/>
<path d="M15.4249 7.54584C10.0808 7.54584 5.75 11.956 5.75 17.3979C5.75 22.8399 10.0808 27.25 15.4249 27.25C20.7689 27.25 25.0997 22.8399 25.0997 17.3979C25.0997 11.956 20.7526 7.54584 15.4249 7.54584ZM15.4249 26.7008C10.375 26.7008 6.28931 22.5403 6.28931 17.3979C6.28931 12.2556 10.375 8.09505 15.4249 8.09505C20.4747 8.09505 24.5604 12.2556 24.5604 17.3979C24.5604 22.5403 20.4584 26.7008 15.4249 26.7008Z" fill="#5E12A0"/>
<path opacity="0.6" d="M15.4251 26.7008C20.4705 26.7008 24.5607 22.5357 24.5607 17.3979C24.5607 12.2601 20.4705 8.09503 15.4251 8.09503C10.3797 8.09503 6.28955 12.2601 6.28955 17.3979C6.28955 22.5357 10.3797 26.7008 15.4251 26.7008Z" fill="url(#paint2_linear_301_6530)"/>
<path opacity="0.6" d="M15.3598 25.5691C10.3752 24.7537 6.9923 19.9774 7.80942 14.9016C8.16898 12.6549 9.28024 10.7411 10.8492 9.3598C8.56118 10.7078 6.86156 13.0543 6.40397 15.9168C5.60317 20.9926 8.98609 25.7689 13.9543 26.5843C16.7325 27.0503 19.4127 26.1682 21.3902 24.4374C19.6415 25.4693 17.517 25.9186 15.3598 25.5691Z" fill="#A98698"/>
<path opacity="0.6" d="M16.8793 8.22814C14.575 7.84536 12.336 8.37791 10.5057 9.5595C10.473 9.5928 10.4403 9.62606 10.4403 9.62606C11.143 9.19337 12.1726 8.8106 12.1726 8.8106C9.52512 10.375 8.70801 12.1557 8.70801 12.1557C9.7376 10.1254 12.761 8.69413 15.1306 8.59426C17.5003 8.49444 19.0529 9.21003 20.9486 10.7577C22.8444 12.3221 23.9884 15.5174 23.8739 18.047C23.7759 20.5765 22.4685 22.6235 22.4685 22.6235C23.3674 21.4419 23.9067 20.5765 24.2499 19.6945C24.3153 19.4282 24.3806 19.162 24.4133 18.879C25.2304 13.8199 21.8638 9.04359 16.8793 8.22814Z" fill="url(#paint3_linear_301_6530)"/>
<path d="M24.1032 17.3146C24.1032 22.1907 20.2136 26.1516 15.4253 26.1516C10.6369 26.1516 6.73096 22.1907 6.73096 17.3146H24.1032Z" fill="url(#paint4_linear_301_6530)"/>
<g opacity="0.6">
<path opacity="0.6" d="M23.4165 17.3146C23.4165 22.0743 19.7231 25.9685 15.0818 26.1516C15.1962 26.1516 15.3106 26.1516 15.425 26.1516C20.2134 26.1516 24.1029 22.1907 24.1029 17.3146H23.4165Z" fill="url(#paint5_linear_301_6530)"/>
</g>
<g opacity="0.7">
<path opacity="0.7" d="M7.95666 17.3146H6.73096C6.73096 22.1907 10.6205 26.1516 15.4089 26.1516C15.6214 26.1516 15.8175 26.1516 16.0136 26.1349C11.5194 25.8021 7.95666 21.9744 7.95666 17.3146Z" fill="url(#paint6_linear_301_6530)"/>
</g>
<path d="M24.0869 17.3979C24.0869 16.3827 22.3545 15.8003 20.0502 15.6006C18.3833 15.4674 16.7 15.6338 14.7715 16.2329C13.1046 16.7322 11.601 16.649 10.5061 16.5158C8.07104 16.2329 6.73096 16.1996 6.73096 17.3979C6.73096 19.1287 10.1956 21.2921 15.3926 20.5432C18.0237 20.1605 19.3802 19.3783 20.9327 18.8457C22.616 18.2799 24.0869 18.2965 24.0869 17.3979Z" fill="url(#paint7_linear_301_6530)"/>
<path d="M18.2687 13.2041C19.081 13.2041 19.7395 12.5336 19.7395 11.7064C19.7395 10.8791 19.081 10.2086 18.2687 10.2086C17.4564 10.2086 16.7979 10.8791 16.7979 11.7064C16.7979 12.5336 17.4564 13.2041 18.2687 13.2041Z" fill="white"/>
<path d="M20.6708 14.3192C21.0138 14.3192 21.2918 14.0361 21.2918 13.6868C21.2918 13.3375 21.0138 13.0544 20.6708 13.0544C20.3279 13.0544 20.0498 13.3375 20.0498 13.6868C20.0498 14.0361 20.3279 14.3192 20.6708 14.3192Z" fill="white"/>
<g opacity="0.6">
<path opacity="0.6" d="M22.8937 10.5081C22.8774 10.5081 22.861 10.5081 22.861 10.5081C22.7629 10.4914 22.6976 10.3916 22.7139 10.2751C22.861 9.50957 23.482 8.77727 23.5147 8.74402C23.5801 8.6608 23.7108 8.6608 23.7762 8.72737C23.8579 8.79393 23.8579 8.92705 23.7925 8.99367C23.7762 9.01027 23.2042 9.6926 23.0735 10.3583C23.0571 10.4582 22.9754 10.5081 22.8937 10.5081Z" fill="url(#paint8_linear_301_6530)"/>
</g>
<path opacity="0.2" d="M14.8214 24.3377C15.0741 24.3377 15.2789 24.1291 15.2789 23.8718C15.2789 23.6144 15.0741 23.4058 14.8214 23.4058C14.5686 23.4058 14.3638 23.6144 14.3638 23.8718C14.3638 24.1291 14.5686 24.3377 14.8214 24.3377Z" fill="white"/>
<g opacity="0.4">
<path opacity="0.6" d="M14.5591 24.1717C14.3793 23.9887 14.3793 23.6891 14.5591 23.5061C14.5918 23.4728 14.6245 23.4562 14.6571 23.4229C14.5918 23.4395 14.5427 23.4728 14.4937 23.5227C14.3139 23.7058 14.3139 24.0053 14.4937 24.1884C14.6408 24.3382 14.8696 24.3714 15.0494 24.2716C14.8859 24.3382 14.6898 24.3049 14.5591 24.1717Z" fill="url(#paint9_linear_301_6530)"/>
</g>
<path opacity="0.3" d="M14.9835 23.7384C15.0377 23.7384 15.0817 23.6938 15.0817 23.6386C15.0817 23.5835 15.0377 23.5388 14.9835 23.5388C14.9294 23.5388 14.8855 23.5835 14.8855 23.6386C14.8855 23.6938 14.9294 23.7384 14.9835 23.7384Z" fill="white"/>
<path opacity="0.2" d="M17.2073 24.1046C17.46 24.1046 17.6649 23.896 17.6649 23.6387C17.6649 23.3813 17.46 23.1727 17.2073 23.1727C16.9546 23.1727 16.7498 23.3813 16.7498 23.6387C16.7498 23.896 16.9546 24.1046 17.2073 24.1046Z" fill="white"/>
<g opacity="0.4">
<path opacity="0.6" d="M16.9448 23.9387C16.765 23.7556 16.765 23.456 16.9448 23.273C16.9775 23.2397 17.0102 23.2231 17.0429 23.1898C16.9775 23.2064 16.9285 23.2397 16.8795 23.2897C16.6997 23.4727 16.6997 23.7723 16.8795 23.9553C17.0265 24.1051 17.2553 24.1384 17.4351 24.0386C17.2717 24.1051 17.0756 24.0718 16.9448 23.9387Z" fill="url(#paint10_linear_301_6530)"/>
</g>
<path opacity="0.3" d="M17.3698 23.5056C17.4239 23.5056 17.4678 23.4608 17.4678 23.4057C17.4678 23.3505 17.4239 23.3058 17.3698 23.3058C17.3156 23.3058 17.2717 23.3505 17.2717 23.4057C17.2717 23.4608 17.3156 23.5056 17.3698 23.5056Z" fill="white"/>
<path opacity="0.2" d="M16.0298 25.1864C16.2193 25.1864 16.3729 25.0299 16.3729 24.8369C16.3729 24.6439 16.2193 24.4874 16.0298 24.4874C15.8402 24.4874 15.6865 24.6439 15.6865 24.8369C15.6865 25.0299 15.8402 25.1864 16.0298 25.1864Z" fill="white"/>
<g opacity="0.4">
<path opacity="0.6" d="M15.8336 25.0537C15.7029 24.9206 15.7029 24.6876 15.8336 24.5544C15.8499 24.5378 15.8826 24.5211 15.899 24.5045C15.8499 24.5211 15.8172 24.5544 15.7846 24.5877C15.6538 24.7208 15.6538 24.9538 15.7846 25.0869C15.899 25.2035 16.0624 25.2201 16.2095 25.1369C16.0787 25.1868 15.9317 25.1536 15.8336 25.0537Z" fill="url(#paint11_linear_301_6530)"/>
</g>
<path opacity="0.3" d="M16.144 24.7205C16.1801 24.7205 16.2094 24.6906 16.2094 24.6539C16.2094 24.6171 16.1801 24.5873 16.144 24.5873C16.1079 24.5873 16.0786 24.6171 16.0786 24.6539C16.0786 24.6906 16.1079 24.7205 16.144 24.7205Z" fill="white"/>
<path opacity="0.2" d="M18.1376 24.9367C18.3272 24.9367 18.4808 24.7803 18.4808 24.5873C18.4808 24.3942 18.3272 24.2378 18.1376 24.2378C17.9481 24.2378 17.7944 24.3942 17.7944 24.5873C17.7944 24.7803 17.9481 24.9367 18.1376 24.9367Z" fill="white"/>
<g opacity="0.4">
<path opacity="0.6" d="M17.942 24.8041C17.8113 24.6709 17.8113 24.4379 17.942 24.3048C17.9583 24.2882 17.991 24.2716 18.0074 24.2549C17.9583 24.2716 17.9256 24.3048 17.893 24.3381C17.7622 24.4713 17.7622 24.7043 17.893 24.8374C18.0074 24.9539 18.1708 24.9705 18.3179 24.8873C18.1871 24.9372 18.0401 24.9039 17.942 24.8041Z" fill="url(#paint12_linear_301_6530)"/>
</g>
<path opacity="0.3" d="M18.2524 24.4709C18.2885 24.4709 18.3178 24.441 18.3178 24.4042C18.3178 24.3675 18.2885 24.3377 18.2524 24.3377C18.2163 24.3377 18.187 24.3675 18.187 24.4042C18.187 24.441 18.2163 24.4709 18.2524 24.4709Z" fill="white"/>
<path opacity="0.2" d="M12.8753 24.1713C13.2905 24.1713 13.6271 23.8285 13.6271 23.4057C13.6271 22.9829 13.2905 22.6402 12.8753 22.6402C12.4601 22.6402 12.1235 22.9829 12.1235 23.4057C12.1235 23.8285 12.4601 24.1713 12.8753 24.1713Z" fill="white"/>
<g opacity="0.4">
<path opacity="0.6" d="M12.451 23.8884C12.1568 23.5888 12.1568 23.1062 12.451 22.8066C12.5 22.7567 12.549 22.7234 12.6144 22.6902C12.5164 22.7234 12.4347 22.79 12.3529 22.8566C12.0588 23.1561 12.0588 23.6387 12.3529 23.9383C12.5981 24.188 12.974 24.2379 13.2682 24.0548C12.9903 24.1713 12.6635 24.1214 12.451 23.8884Z" fill="url(#paint13_linear_301_6530)"/>
</g>
<path opacity="0.3" d="M13.137 23.1727C13.2273 23.1727 13.3005 23.0982 13.3005 23.0063C13.3005 22.9144 13.2273 22.8399 13.137 22.8399C13.0468 22.8399 12.9736 22.9144 12.9736 23.0063C12.9736 23.0982 13.0468 23.1727 13.137 23.1727Z" fill="white"/>
<path opacity="0.2" d="M19.5928 22.2907C20.008 22.2907 20.3446 21.9479 20.3446 21.5251C20.3446 21.1024 20.008 20.7596 19.5928 20.7596C19.1776 20.7596 18.8411 21.1024 18.8411 21.5251C18.8411 21.9479 19.1776 22.2907 19.5928 22.2907Z" fill="white"/>
<g opacity="0.4">
<path opacity="0.6" d="M19.1512 22.0078C18.857 21.7082 18.857 21.2256 19.1512 20.9261C19.2002 20.8761 19.2492 20.8428 19.3146 20.8095C19.2166 20.8428 19.1349 20.9094 19.0531 20.976C18.759 21.2755 18.759 21.7582 19.0531 22.0577C19.2983 22.3073 19.6741 22.3573 19.9684 22.1742C19.6905 22.2907 19.38 22.2408 19.1512 22.0078Z" fill="url(#paint14_linear_301_6530)"/>
</g>
<path opacity="0.3" d="M19.8536 21.2921C19.9439 21.2921 20.017 21.2176 20.017 21.1257C20.017 21.0338 19.9439 20.9593 19.8536 20.9593C19.7634 20.9593 19.6902 21.0338 19.6902 21.1257C19.6902 21.2176 19.7634 21.2921 19.8536 21.2921Z" fill="white"/>
<defs>
<radialGradient id="paint0_radial_301_6530" cx="0" cy="0" r="1" gradientUnits="userSpaceOnUse" gradientTransform="translate(25.5371 7.81216) scale(7.30427 7.43807)">
<stop stop-color="#FFEAFF" stop-opacity="0.6"/>
<stop offset="0.6807" stop-color="#A087C9"/>
<stop offset="1" stop-color="#10002F"/>
</radialGradient>
<radialGradient id="paint1_radial_301_6530" cx="0" cy="0" r="1" gradientUnits="userSpaceOnUse" gradientTransform="translate(21.4736 10.9843) scale(17.8709 18.1982)">
<stop stop-color="#FFEAFF" stop-opacity="0.6"/>
<stop offset="0.6807" stop-color="#A087C9"/>
<stop offset="1" stop-color="#10002F"/>
</radialGradient>
<linearGradient id="paint2_linear_301_6530" x1="13.9597" y1="26.5688" x2="16.9869" y2="8.22893" gradientUnits="userSpaceOnUse">
<stop stop-color="#81FFFF"/>
<stop offset="0.6202" stop-color="white" stop-opacity="0"/>
</linearGradient>
<linearGradient id="paint3_linear_301_6530" x1="21.863" y1="11.08" x2="14.1836" y2="17.9994" gradientUnits="userSpaceOnUse">
<stop offset="0.2888" stop-color="white"/>
<stop offset="0.7796" stop-color="white" stop-opacity="0"/>
</linearGradient>
<linearGradient id="paint4_linear_301_6530" x1="6.73831" y1="21.7279" x2="24.099" y2="21.7279" gradientUnits="userSpaceOnUse">
<stop stop-color="#0002E9"/>
<stop offset="0.9952" stop-color="#FF00C7"/>
</linearGradient>
<linearGradient id="paint5_linear_301_6530" x1="24.9206" y1="18.0901" x2="15.3095" y2="27.0096" gradientUnits="userSpaceOnUse">
<stop offset="0.2888" stop-color="white"/>
<stop offset="0.7796" stop-color="white" stop-opacity="0"/>
</linearGradient>
<linearGradient id="paint6_linear_301_6530" x1="6.73831" y1="21.7279" x2="16.0262" y2="21.7279" gradientUnits="userSpaceOnUse">
<stop stop-color="#000292"/>
<stop offset="0.9952" stop-color="#7D00C7"/>
</linearGradient>
<linearGradient id="paint7_linear_301_6530" x1="6.74996" y1="18.132" x2="24.0873" y2="18.132" gradientUnits="userSpaceOnUse">
<stop stop-color="#000292"/>
<stop offset="0.9952" stop-color="#BE00C7"/>
</linearGradient>
<linearGradient id="paint8_linear_301_6530" x1="23.8027" y1="8.66295" x2="22.5236" y2="10.7042" gradientUnits="userSpaceOnUse">
<stop offset="0.2888" stop-color="white"/>
<stop offset="0.7796" stop-color="white" stop-opacity="0"/>
</linearGradient>
<linearGradient id="paint9_linear_301_6530" x1="14.3584" y1="23.8865" x2="15.0499" y2="23.8865" gradientUnits="userSpaceOnUse">
<stop offset="0.2888" stop-color="white"/>
<stop offset="0.7796" stop-color="white" stop-opacity="0"/>
</linearGradient>
<linearGradient id="paint10_linear_301_6530" x1="16.7425" y1="23.6502" x2="17.4339" y2="23.6502" gradientUnits="userSpaceOnUse">
<stop offset="0.2888" stop-color="white"/>
<stop offset="0.7796" stop-color="white" stop-opacity="0"/>
</linearGradient>
<linearGradient id="paint11_linear_301_6530" x1="15.6844" y1="24.8413" x2="16.2035" y2="24.8413" gradientUnits="userSpaceOnUse">
<stop offset="0.2888" stop-color="white"/>
<stop offset="0.7796" stop-color="white" stop-opacity="0"/>
</linearGradient>
<linearGradient id="paint12_linear_301_6530" x1="17.7857" y1="24.5911" x2="18.3048" y2="24.5911" gradientUnits="userSpaceOnUse">
<stop offset="0.2888" stop-color="white"/>
<stop offset="0.7796" stop-color="white" stop-opacity="0"/>
</linearGradient>
<linearGradient id="paint13_linear_301_6530" x1="12.1249" y1="23.4253" x2="13.254" y2="23.4253" gradientUnits="userSpaceOnUse">
<stop offset="0.2888" stop-color="white"/>
<stop offset="0.7796" stop-color="white" stop-opacity="0"/>
</linearGradient>
<linearGradient id="paint14_linear_301_6530" x1="18.8313" y1="21.5441" x2="19.9605" y2="21.5441" gradientUnits="userSpaceOnUse">
<stop offset="0.2888" stop-color="white"/>
<stop offset="0.7796" stop-color="white" stop-opacity="0"/>
</linearGradient>
</defs>
</svg>
